<svg width="106" height="106" viewBox="0 0 106 106" fill="none" xmlns="http://www.w3.org/2000/svg">
<g clip-path="url(#clip0)">
<path d="M25.7153 38.8956C29.6934 38.8956 32.9182 35.6707 32.9182 31.6927C32.9182 27.7146 29.6934 24.4897 25.7153 24.4897C21.7372 24.4897 18.5124 27.7146 18.5124 31.6927C18.5124 35.6707 21.7372 38.8956 25.7153 38.8956Z" fill="#00473E"/>
<path d="M69.7802 14.4058C73.7583 14.4058 76.9831 11.181 76.9831 7.20292C76.9831 3.22486 73.7583 0 69.7802 0C65.8021 0 62.5773 3.22486 62.5773 7.20292C62.5773 11.181 65.8021 14.4058 69.7802 14.4058Z" fill="#00473E"/>
<path d="M96.9486 78.6111H93.6583C93.734 78.585 93.81 78.5612 93.8852 78.5306C95.9298 77.6882 96.9045 75.3477 96.0621 73.3028L89.1021 56.4096L88.5756 43.8271C88.5547 43.3259 88.4385 42.8522 88.2516 42.417L83.0525 19.1038C82.4677 16.4808 79.8671 14.8287 77.2442 15.4136L68.775 17.3024C66.1521 17.8872 64.5 20.4878 65.0849 23.1107L65.843 26.5098L69.1369 21.3118L65.6985 31.2308L54.3624 36.1056C52.7369 36.8045 51.986 38.6888 52.685 40.314C53.3837 41.9386 55.2669 42.6905 56.8931 41.9914L69.5278 36.5584C70.3549 36.2027 70.994 35.5153 71.2891 34.6646L75.1904 23.4111L73.9374 35.5826C73.6801 38.0813 71.563 38.7349 70.635 39.1333L68.8313 39.909L69.8891 44.6522L66.4188 54.1132C66.3194 54.3846 66.2494 54.6658 66.2103 54.9519L63.5783 74.2883C63.3166 76.2114 64.4671 78.0006 66.2335 78.6113H62.8733C62.057 78.6113 61.3953 79.273 61.3953 80.0894V92.3058H45.3874C46.6425 91.4868 47.387 89.9976 47.1714 88.4138L44.5392 69.0774C44.304 67.3493 42.9771 65.9721 41.2588 65.6728L33.7608 64.3664V57.5655L24.3192 49.8705L35.0303 55.0803C35.8399 55.4743 36.7777 55.509 37.6143 55.1763L50.3954 50.0974C52.0394 49.444 52.8425 47.5817 52.1893 45.9372C51.5359 44.2932 49.6732 43.4901 48.0292 44.1433L36.5618 48.7005L27.1216 44.1087L33.7225 45.5958C33.4265 43.192 31.3787 41.3307 28.8949 41.3307H20.2177C17.5304 41.3307 15.352 43.5093 15.352 46.1964V71.1614H15.3563L14.8369 83.5764L7.87659 100.47C7.03396 102.514 8.00888 104.855 10.0535 105.697C12.0999 106.54 14.4394 105.564 15.2814 103.52L22.5106 85.9747C22.6884 85.5428 22.7897 85.0832 22.8089 84.6168L23.3648 71.3291C23.3671 71.2726 23.3634 71.2175 23.3634 71.1618H26.6649C27.2382 71.3966 26.7001 71.2652 36.9988 73.0599L39.236 89.4943C39.3992 90.6936 40.0799 91.693 41.0198 92.3062H25.8418C25.0256 92.3062 24.3637 92.9679 24.3637 93.7842V104.523C24.3637 105.339 25.0254 106.001 25.8418 106.001C35.6138 106.001 87.1766 106.001 96.9484 106.001C97.7646 106.001 98.4265 105.339 98.4265 104.523C98.4265 99.7158 98.4265 84.8969 98.4265 80.0898C98.4265 79.2728 97.765 78.6111 96.9486 78.6111ZM68.8502 78.6109C70.2321 78.1329 71.3027 76.9159 71.5133 75.368L74.0867 56.4622L77.9936 45.8097L80.6182 45.2244L81.1298 57.4496C81.149 57.9162 81.2503 58.3756 81.4281 58.8075L88.6571 76.3532C89.1124 77.4588 90.0068 78.249 91.0546 78.6109H68.8502Z" fill="#00473E"/>
</g>
<defs>
<clipPath id="clip0">
<rect width="106" height="106" fill="white"/>
</clipPath>
</defs>
</svg>
