<svg width="104" height="78" viewBox="0 0 104 78" fill="none" xmlns="http://www.w3.org/2000/svg">
<path fill-rule="evenodd" clip-rule="evenodd" d="M103.051 20.4485C103.354 20.7504 103.594 21.109 103.758 21.5038C103.921 21.8987 104.006 22.322 104.006 22.7495C104.006 23.1769 103.921 23.6002 103.758 23.9951C103.594 24.3899 103.354 24.7486 103.051 25.0505L83.551 44.5505C83.2491 44.8531 82.8904 45.0932 82.4956 45.2571C82.1007 45.4209 81.6774 45.5053 81.25 45.5053C80.8225 45.5053 80.3992 45.4209 80.0043 45.2571C79.6095 45.0932 79.2509 44.8531 78.949 44.5505L69.199 34.8005C68.5887 34.1902 68.2458 33.3625 68.2458 32.4995C68.2458 31.6364 68.5887 30.8087 69.199 30.1985C69.8092 29.5882 70.6369 29.2454 71.5 29.2454C72.363 29.2454 73.1907 29.5882 73.801 30.1985L81.25 37.654L98.449 20.4485C98.7509 20.1458 99.1095 19.9057 99.5043 19.7418C99.8992 19.578 100.322 19.4937 100.75 19.4937C101.177 19.4937 101.601 19.578 101.996 19.7418C102.39 19.9057 102.749 20.1458 103.051 20.4485Z" fill="#00473E"/>
<path d="M6.5 78C6.5 78 0 78 0 71.5C0 65 6.5 45.5 39 45.5C71.5 45.5 78 65 78 71.5C78 78 71.5 78 71.5 78H6.5ZM39 39C44.1717 39 49.1316 36.9455 52.7886 33.2886C56.4455 29.6316 58.5 24.6717 58.5 19.5C58.5 14.3283 56.4455 9.36838 52.7886 5.71142C49.1316 2.05446 44.1717 0 39 0C33.8283 0 28.8684 2.05446 25.2114 5.71142C21.5545 9.36838 19.5 14.3283 19.5 19.5C19.5 24.6717 21.5545 29.6316 25.2114 33.2886C28.8684 36.9455 33.8283 39 39 39Z" fill="#00473E"/>
</svg>
