<svg width="198" height="66" viewBox="0 0 198 66" fill="none" xmlns="http://www.w3.org/2000/svg">
<path d="M40.8102 28.711C28.3846 16.1776 14.1249 9.05668 0 0.533203C13.5854 28.0367 21.956 38.3494 39.0569 50.4513C43.7413 56.6461 50.1698 59.5592 57.7133 60.5122C74.5355 62.6431 91.0789 67.3544 106.328 64.6391C88.4266 56.2865 66.6144 54.9288 45.7103 49.8309C45.5215 42.6021 49.0549 37.0277 40.8102 28.711Z" fill="#00473E"/>
<path d="M178.517 32.0648C177.231 23.1457 170.838 29.2866 166.9 28.1267C161.766 27.2636 156.606 26.4364 149.395 25.2676C156.552 34.4474 160.139 43.6992 171.818 45.3355C176.817 46.0278 186.033 47.817 184.864 53.0498C181.879 66.4914 192.489 60.9889 197.038 64.1717C198.234 33.3595 201.983 35.7151 178.517 32.0648Z" fill="#00473E"/>
<path d="M103.774 27.6495C100.241 42.9972 100.259 43.0242 112.01 45.9103C112.63 46.0721 112.873 47.5107 113.475 48.194C115.175 50.0012 117.719 50.9542 119.661 49.7135C122.619 47.7804 120.722 44.7864 119.769 42.4487C118.636 39.5986 114.267 37.4318 117.243 33.8084C118.456 32.3339 123.743 34.7075 122.367 30.176C121.199 26.3099 116.973 27.3708 113.979 27.9373C111.569 28.4048 109.16 30.7514 108.243 26.2919C114.258 21.9043 124.013 29.5826 129.434 18.4697C120.38 22.4887 111.605 16.8603 103.954 22.4258C103.918 24.179 104.152 25.9772 103.774 27.6495Z" fill="#00473E"/>
<path d="M103.936 22.2196C103.666 22.1566 103.468 22.2016 103.226 22.1566C101.625 20.4124 99.9887 18.785 98.9548 16.6811C98.8559 16.5283 98.757 16.3934 98.6581 16.2046C98.3524 15.4224 98.1006 14.5682 97.9837 13.6331C97.6061 10.3155 98.5052 6.12565 92.8499 5.65812C87.9408 5.25352 86.5562 8.51726 85.2345 11.8619C81.0986 22.2555 71.4872 20.6461 64.5282 18.9289C55.9778 16.807 57.0567 20.3494 58.4323 25.3484C59.3764 28.792 60.761 32.2535 62.73 35.2026C68.0976 43.3035 77.7899 40.8669 85.3784 43.3035C92.6161 45.6232 90.2605 36.3714 93.1646 33.2605C95.7 30.5812 95.3674 24.8629 98.5951 22.786C99.6651 22.0937 101.131 21.824 103.252 22.1926C103.387 22.3275 103.513 22.4623 103.657 22.6242C103.765 22.5432 103.846 22.5253 103.954 22.4353C103.936 22.3634 103.936 22.2915 103.936 22.2196Z" fill="#00473E"/>
<path d="M139.514 32.64C142.616 27.0116 148.001 21.7789 142.499 14.0376C135.225 19.603 136.304 25.9417 139.514 32.64Z" fill="#00473E"/>
</svg>
